<?xml version="1.0" encoding="UTF-8"?>
<svg width="184px" height="30px" viewBox="0 0 184 30" version="1.1" xmlns="http://www.w3.org/2000/svg" xmlns:xlink="http://www.w3.org/1999/xlink">
    <!-- Generator: Sketch 43.2 (39069) - http://www.bohemiancoding.com/sketch -->
    <title>uc-logo-white</title>
    <desc>Created with Sketch.</desc>
    <defs></defs>
    <g id="Page-2" stroke="none" stroke-width="1" fill="none" fill-rule="evenodd">
        <g id="Artboard-2" transform="translate(-1148.000000, -670.000000)" fill-rule="nonzero" fill="#FFFFFF">
            <g id="uc-logo-white" transform="translate(1147.000000, 670.000000)">
                <path d="M109.32,9.225 L109.32,9.225 C109.5,10.44 111.345,19.17 111.345,19.17 L107.31,19.17 L109.32,9.225 Z M93.99,29.52 L104.67,29.52 L105.48,25.935 L113.1,25.935 L114.12,29.52 L124.8,29.52 L114.795,0.99 L103.59,0.99 L93.99,29.52 Z" id="Shape"></path>
                <path d="M67.77,0.99 L78.12,0.99 C87.51,0.99 94.695,5.175 94.695,15.66 C94.695,24.105 88.845,29.52 80.625,29.52 L67.77,29.505 L67.77,0.99 L67.77,0.99 Z M77.925,21.33 L78.615,21.33 C82.005,21.33 84.51,19.35 84.51,15.63 C84.51,11.625 82.29,9.39 78.555,9.39 L77.91,9.39 L77.91,21.33 L77.925,21.33 Z" id="Shape"></path>
                <path d="M61.605,1.89 L62.145,6.57 C62.28,7.68 62.925,10.35 62.13,9.99 C61.62,9.765 61.2,8.565 60.795,7.485 C60.585,6.945 59.58,4.365 59.325,4.17 C58.065,3.255 54.9,2.22 52.77,2.205 C46.29,2.175 42.015,6.825 42.015,15.06 C42.015,20.955 44.925,28.05 52.335,28.05 C54.99,28.05 60.06,27.24 61.44,23.565 C62.07,21.915 62.64,20.43 63.045,20.88 C63.345,21.21 62.955,22.53 62.775,23.25 C61.905,26.655 61.86,27.675 61.575,27.81 C58.23,29.445 53.94,29.985 50.19,29.985 C38.265,29.985 34.14,23.22 34.14,16.455 C34.14,4.71 41.565,-0.15 53.07,0.285 C55.965,0.39 58.89,0.885 61.605,1.89" id="Shape"></path>
                <path d="M26.37,2.415 L24.45,1.755 C23.805,1.2 24.585,1.035 24.585,1.035 C24.585,1.035 27.345,1.53 34.23,0.975 C34.23,0.975 34.83,1.095 34.425,1.56 L32.16,2.505 C30.69,3.12 30.69,2.76 30.69,4.335 L30.675,18.87 C30.675,30.24 18.765,29.985 16.455,29.985 C15.345,29.985 4.515,29.985 4.515,20.85 L4.515,5.475 C4.515,2.79 4.8,2.865 3.9,2.55 L1.14,1.545 C1.14,1.545 0.675,0.9 1.5,0.945 C3.765,1.05 7.02,1.53 14.625,0.99 C14.625,0.99 15.285,1.14 14.85,1.62 L12.645,2.25 C10.89,3.015 11.13,2.43 11.085,4.17 L11.13,19.35 C11.13,23.07 13.095,27.675 19.215,27.675 C27.645,27.675 27.735,20.58 27.735,19.005 L27.75,3.96 C27.84,2.535 27.645,2.94 26.37,2.415" id="Shape"></path>
                <path d="M162.27,27.33 L165.21,19.77 L165.72,20.19 C167.535,21.63 169.98,22.845 172.305,22.89 C174.375,22.935 175.38,22.395 175.11,20.7 C174.9,19.425 173.43,19.2 172.5,19.02 L170.475,18.63 C166.53,17.91 163.215,15.555 163.215,11.085 C163.215,4.32 169.215,0.525 175.26,0.525 C178.44,0.525 181.335,1.305 184.065,3.03 L181.5,9.735 C180.09,8.76 177.975,7.365 175.29,7.275 C174.405,7.245 172.38,7.695 173.025,9.69 C173.31,10.545 174.555,10.905 175.335,11.085 L177.615,11.625 C181.89,12.6 184.98,14.955 184.98,19.785 C184.98,26.595 178.935,29.955 172.95,29.955 C169.47,29.955 165.405,28.98 162.27,27.33" id="Shape"></path>
                <rect id="Rectangle-path" x="150" y="0.99" width="10.11" height="28.53"></rect>
                <polygon id="Shape" points="138.42 0.99 148.935 0.99 138.195 29.52 129.645 29.52 118.92 0.99 129.42 0.99 133.92 18.21"></polygon>
            </g>
        </g>
    </g>
</svg>